{
	"asset":{
		"generator":"Khronos glTF Blender I/O v5.0.21",
		"version":"2.0"
	},
	"scene":0,
	"scenes":[
		{
			"name":"Scene",
			"nodes":[
				0,
				1
			]
		}
	],
	"nodes":[
		{
			"mesh":0,
			"name":"part_0000",
			"rotation":[
				0.7071068286895752,
				0,
				0,
				0.7071068286895752
			]
		},
		{
			"mesh":1,
			"name":"part_0001",
			"rotation":[
				0.7071068286895752,
				0,
				0,
				0.7071068286895752
			]
		}
	],
	"materials":[
		{
			"doubleSided":true,
			"name":"\u6750\u8d28.001",
			"pbrMetallicRoughness":{
				"baseColorFactor":[
					0.20006540417671204,
					0.24450144171714783,
					0,
					1
				],
				"metallicFactor":0,
				"roughnessFactor":0.5
			}
		},
		{
			"doubleSided":true,
			"name":"\u6750\u8d28",
			"pbrMetallicRoughness":{
				"baseColorFactor":[
					0.8000074625015259,
					0.003900442970916629,
					0,
					1
				],
				"metallicFactor":0,
				"roughnessFactor":0.5
			}
		}
	],
	"meshes":[
		{
			"name":"Mesh.001",
			"primitives":[
				{
					"attributes":{
						"POSITION":0,
						"NORMAL":1,
						"TEXCOORD_0":2
					},
					"indices":3,
					"material":0
				},
				{
					"attributes":{
						"POSITION":4,
						"NORMAL":5,
						"TEXCOORD_0":6
					},
					"indices":7,
					"material":1
				}
			]
		},
		{
			"name":"Mesh",
			"primitives":[
				{
					"attributes":{
						"POSITION":8,
						"NORMAL":9,
						"TEXCOORD_0":10
					},
					"indices":11,
					"material":0
				}
			]
		}
	],
	"accessors":[
		{
			"bufferView":0,
			"componentType":5126,
			"count":2162,
			"max":[
				0.10414999723434448,
				0.13781699538230896,
				9.999999974752427e-07
			],
			"min":[
				-0.25115901231765747,
				-0.12079499661922455,
				-0.9782249927520752
			],
			"type":"VEC3"
		},
		{
			"bufferView":1,
			"componentType":5126,
			"count":2162,
			"type":"VEC3"
		},
		{
			"bufferView":2,
			"componentType":5126,
			"count":2162,
			"type":"VEC2"
		},
		{
			"bufferView":3,
			"componentType":5123,
			"count":2439,
			"type":"SCALAR"
		},
		{
			"bufferView":4,
			"componentType":5126,
			"count":4001,
			"max":[
				0.18735599517822266,
				0.1872899979352951,
				-0.9714789986610413
			],
			"min":[
				-0.20618300139904022,
				-0.18825900554656982,
				-1.1491340398788452
			],
			"type":"VEC3"
		},
		{
			"bufferView":5,
			"componentType":5126,
			"count":4001,
			"type":"VEC3"
		},
		{
			"bufferView":6,
			"componentType":5126,
			"count":4001,
			"type":"VEC2"
		},
		{
			"bufferView":7,
			"componentType":5123,
			"count":4311,
			"type":"SCALAR"
		},
		{
			"bufferView":8,
			"componentType":5126,
			"count":489,
			"max":[
				0.24582499265670776,
				0.11083099991083145,
				-0.5487059950828552
			],
			"min":[
				0.03218900039792061,
				-0.05333099886775017,
				-0.6026769876480103
			],
			"type":"VEC3"
		},
		{
			"bufferView":9,
			"componentType":5126,
			"count":489,
			"type":"VEC3"
		},
		{
			"bufferView":10,
			"componentType":5126,
			"count":489,
			"type":"VEC2"
		},
		{
			"bufferView":11,
			"componentType":5123,
			"count":579,
			"type":"SCALAR"
		}
	],
	"bufferViews":[
		{
			"buffer":0,
			"byteLength":25944,
			"byteOffset":0,
			"target":34962
		},
		{
			"buffer":0,
			"byteLength":25944,
			"byteOffset":25944,
			"target":34962
		},
		{
			"buffer":0,
			"byteLength":17296,
			"byteOffset":51888,
			"target":34962
		},
		{
			"buffer":0,
			"byteLength":4878,
			"byteOffset":69184,
			"target":34963
		},
		{
			"buffer":0,
			"byteLength":48012,
			"byteOffset":74064,
			"target":34962
		},
		{
			"buffer":0,
			"byteLength":48012,
			"byteOffset":122076,
			"target":34962
		},
		{
			"buffer":0,
			"byteLength":32008,
			"byteOffset":170088,
			"target":34962
		},
		{
			"buffer":0,
			"byteLength":8622,
			"byteOffset":202096,
			"target":34963
		},
		{
			"buffer":0,
			"byteLength":5868,
			"byteOffset":210720,
			"target":34962
		},
		{
			"buffer":0,
			"byteLength":5868,
			"byteOffset":216588,
			"target":34962
		},
		{
			"buffer":0,
			"byteLength":3912,
			"byteOffset":222456,
			"target":34962
		},
		{
			"buffer":0,
			"byteLength":1158,
			"byteOffset":226368,
			"target":34963
		}
	],
	"buffers":[
		{
			"byteLength":227528,
			"uri":"flower.bin"
		}
	]
}
