{
	"asset":{
		"generator":"Khronos glTF Blender I/O v5.0.21",
		"version":"2.0"
	},
	"scene":0,
	"scenes":[
		{
			"name":"Scene",
			"nodes":[
				0,
				1
			]
		}
	],
	"nodes":[
		{
			"mesh":0,
			"name":"part_0000"
		},
		{
			"mesh":1,
			"name":"part_0001"
		}
	],
	"materials":[
		{
			"doubleSided":true,
			"name":"\u6750\u8d28.001",
			"pbrMetallicRoughness":{
				"baseColorFactor":[
					0.20006540417671204,
					0.24450144171714783,
					0,
					1
				],
				"metallicFactor":0,
				"roughnessFactor":0.5
			}
		},
		{
			"doubleSided":true,
			"name":"\u6750\u8d28",
			"pbrMetallicRoughness":{
				"baseColorFactor":[
					0.8000074625015259,
					0.003900442970916629,
					0,
					1
				],
				"metallicFactor":0,
				"roughnessFactor":0.5
			}
		}
	],
	"meshes":[
		{
			"name":"Mesh.001",
			"primitives":[
				{
					"attributes":{
						"POSITION":0,
						"NORMAL":1,
						"TEXCOORD_0":2
					},
					"indices":3,
					"material":0
				},
				{
					"attributes":{
						"POSITION":4,
						"NORMAL":5,
						"TEXCOORD_0":6
					},
					"indices":7,
					"material":1
				}
			]
		},
		{
			"name":"Mesh",
			"primitives":[
				{
					"attributes":{
						"POSITION":8,
						"NORMAL":9,
						"TEXCOORD_0":10
					},
					"indices":11,
					"material":0
				}
			]
		}
	],
	"accessors":[
		{
			"bufferView":0,
			"componentType":5126,
			"count":2162,
			"max":[
				0.28037863969802856,
				2.633445978164673,
				0.37101224064826965
			],
			"min":[
				-0.6761365532875061,
				-2.696963065318414e-06,
				-0.3251882493495941
			],
			"type":"VEC3"
		},
		{
			"bufferView":1,
			"componentType":5126,
			"count":2162,
			"type":"VEC3"
		},
		{
			"bufferView":2,
			"componentType":5126,
			"count":2162,
			"type":"VEC2"
		},
		{
			"bufferView":3,
			"componentType":5123,
			"count":2439,
			"type":"SCALAR"
		},
		{
			"bufferView":4,
			"componentType":5126,
			"count":4004,
			"max":[
				0.504374623298645,
				3.0935442447662354,
				0.5041967630386353
			],
			"min":[
				-0.5550581812858582,
				2.6152853965759277,
				-0.5068058371543884
			],
			"type":"VEC3"
		},
		{
			"bufferView":5,
			"componentType":5126,
			"count":4004,
			"type":"VEC3"
		},
		{
			"bufferView":6,
			"componentType":5126,
			"count":4004,
			"type":"VEC2"
		},
		{
			"bufferView":7,
			"componentType":5123,
			"count":4311,
			"type":"SCALAR"
		},
		{
			"bufferView":8,
			"componentType":5126,
			"count":489,
			"max":[
				0.6617770195007324,
				1.622446060180664,
				0.29836422204971313
			],
			"min":[
				0.0866549015045166,
				1.4771525859832764,
				-0.143570676445961
			],
			"type":"VEC3"
		},
		{
			"bufferView":9,
			"componentType":5126,
			"count":489,
			"type":"VEC3"
		},
		{
			"bufferView":10,
			"componentType":5126,
			"count":489,
			"type":"VEC2"
		},
		{
			"bufferView":11,
			"componentType":5123,
			"count":579,
			"type":"SCALAR"
		}
	],
	"bufferViews":[
		{
			"buffer":0,
			"byteLength":25944,
			"byteOffset":0,
			"target":34962
		},
		{
			"buffer":0,
			"byteLength":25944,
			"byteOffset":25944,
			"target":34962
		},
		{
			"buffer":0,
			"byteLength":17296,
			"byteOffset":51888,
			"target":34962
		},
		{
			"buffer":0,
			"byteLength":4878,
			"byteOffset":69184,
			"target":34963
		},
		{
			"buffer":0,
			"byteLength":48048,
			"byteOffset":74064,
			"target":34962
		},
		{
			"buffer":0,
			"byteLength":48048,
			"byteOffset":122112,
			"target":34962
		},
		{
			"buffer":0,
			"byteLength":32032,
			"byteOffset":170160,
			"target":34962
		},
		{
			"buffer":0,
			"byteLength":8622,
			"byteOffset":202192,
			"target":34963
		},
		{
			"buffer":0,
			"byteLength":5868,
			"byteOffset":210816,
			"target":34962
		},
		{
			"buffer":0,
			"byteLength":5868,
			"byteOffset":216684,
			"target":34962
		},
		{
			"buffer":0,
			"byteLength":3912,
			"byteOffset":222552,
			"target":34962
		},
		{
			"buffer":0,
			"byteLength":1158,
			"byteOffset":226464,
			"target":34963
		}
	],
	"buffers":[
		{
			"byteLength":227624,
			"uri":"flower.bin"
		}
	]
}
